<?xml version="1.0" encoding="UTF-8"?>
<svg id="Layer_2" data-name="Layer 2" xmlns="http://www.w3.org/2000/svg" viewBox="0 0 122.95 11">
  <defs>
    <style>
      .cls-1 {
        fill: #119998;
      }
    </style>
  </defs>
  <g id="Layer_1-2" data-name="Layer 1">
    <g>
      <path class="cls-1" d="m.7.1h1.7c.4,0,.7.3.7.7v2.5c0,.4.3.7.7.7h1.7c.4,0,.7-.3.7-.7V.8c0-.4.3-.7.7-.7h1.7c.4,0,.7.3.7.7v9.1c0,.4-.3.7-.7.7h-1.7c-.4,0-.7-.3-.7-.7v-2.6c0-.4-.3-.7-.7-.7h-1.7c-.4,0-.7.3-.7.7v2.6c0,.4-.3.7-.7.7H.7c-.4,0-.7-.3-.7-.7V.8C0,.4.3.1.7.1Z"/>
      <path class="cls-1" d="m13.4,5.9l-2.9-4.7c-.3-.5,0-1.1.6-1.1h1.8c.3,0,.5.1.6.4l.7,1.4c.3.6.8,1.6.8,1.6,0,0,.5-1,.8-1.6l.7-1.4c.1-.2.4-.4.6-.4h1.8c.6,0,.9.6.6,1.1l-2.9,4.7c-.1.1-.1.2-.1.4v3.6c0,.4-.3.7-.7.7h-1.7c-.4,0-.7-.3-.7-.7v-3.6c.2-.1.1-.3,0-.4Z"/>
      <path class="cls-1" d="m20.8.8c0-.4.3-.7.7-.7h3.7c3.5,0,5.7,2.4,5.7,5.3s-2.2,5.3-5.7,5.3h-3.7c-.4,0-.7-.3-.7-.7V.8Zm4.3,7.2c1.6,0,2.6-1.1,2.6-2.6s-1-2.6-2.6-2.6h-1.2v5.3h1.2v-.1Z"/>
      <path class="cls-1" d="m32.4.8c0-.4.3-.7.7-.7h3.9c3.2,0,4.9,1.9,4.9,4.2,0,1-.4,2.1-1.2,2.9-.2.2-.3.6-.1.9l.9,1.5c.3.5,0,1.1-.6,1.1h-1.8c-.3,0-.5-.1-.6-.4l-1-1.9h-2.1v1.5c0,.4-.3.7-.7.7h-1.7c-.4,0-.7-.3-.7-.7V.8h.1Zm4.7,5c1,0,1.6-.7,1.6-1.5,0-.9-.6-1.5-1.6-1.5h-.9c-.4,0-.7.3-.7.7v1.7c0,.4.3.7.7.7h.9v-.1Z"/>
      <path class="cls-1" d="m69.2.1h6.9c.4,0,.7.3.7.7v1.2c0,.4-.3.7-.7.7h-4.6v1.3h4.4c.4,0,.7.3.7.7v1.2c0,.4-.3.7-.7.7h-3.6c-.4,0-.7.3-.7.7h0c0,.4.3.7.7.7h4c.4,0,.7.3.7.7v1.2c0,.4-.3.7-.7.7h-7.1c-.4,0-.7-.3-.7-.7V.8c0-.4.3-.7.7-.7Z"/>
      <path class="cls-1" d="m79.8.1h1.6c.2,0,.4.1.6.3l3.1,4.4c.2.3.5.8.5.8V.9c0-.4.3-.7.7-.7h1.7c.4,0,.7.3.7.7v9.1c0,.4-.3.7-.7.7h-1.6c-.2,0-.4-.1-.6-.3l-3.1-4.3c-.2-.3-.5-.8-.5-.8v4.7c0,.4-.3.7-.7.7h-1.7c-.4,0-.7-.3-.7-.7V.9c0-.5.3-.8.7-.8Z"/>
      <path class="cls-1" d="m91.7.1h6.9c.4,0,.7.3.7.7v1.2c0,.4-.3.7-.7.7h-4.6v1.3h4.4c.4,0,.7.3.7.7v1.2c0,.4-.3.7-.7.7h-3.6c-.4,0-.7.3-.7.7h0c0,.4.3.7.7.7h4c.4,0,.7.3.7.7v1.2c0,.4-.3.7-.7.7h-7.1c-.4,0-.7-.3-.7-.7V.8c0-.4.3-.7.7-.7Z"/>
      <path class="cls-1" d="m101.6.8c0-.4.3-.7.7-.7h3.9c3.2,0,4.9,1.9,4.9,4.2,0,1-.4,2.1-1.2,2.9-.2.2-.3.6-.1.9l.9,1.5c.3.5,0,1.1-.6,1.1h-1.8c-.3,0-.5-.1-.6-.4l-1-1.9h-2v1.5c0,.4-.3.7-.7.7h-1.7c-.4,0-.7-.3-.7-.7V.8h0Zm4.7,5c1,0,1.6-.7,1.6-1.5,0-.9-.6-1.5-1.6-1.5h-.9c-.4,0-.7.3-.7.7v1.7c0,.4.3.7.7.7h.9v-.1Z"/>
      <path class="cls-1" d="m116.3.1h2.2c.3,0,.6.2.7.4l3.7,9.1c.2.5-.2,1-.7,1h-1.6c-.3,0-.6-.2-.7-.5l-.1-.4c-.1-.3-.4-.5-.7-.5h-3.4c-.3,0-.6.2-.7.5l-.1.4c-.1.3-.4.5-.7.5h-1.6c-.5,0-.9-.5-.7-1l3.7-9.1c.1-.2.4-.4.7-.4Zm1.5,6.8c.5,0,.8-.5.7-1l-.9-2.6c-.1-.3-.1-.4-.1-.4,0,0,0,.1-.1.4l-.9,2.6c-.2.5.2,1,.7,1h.6Z"/>
      <path class="cls-1" d="m62.3,0c-1.5,0-2.7.4-3.9,1.3l-1.6,1.2c-.4.3-.4.8,0,1.1l1.3,1c.3.2.6.2.9,0l1.7-1.3c.5-.4.9-.6,1.6-.6.5,0,1,.2,1.4.5.3.2.7.2.9-.1l1-1.1c.3-.3.3-.8-.1-1.1-.9-.6-2-.9-3.2-.9Zm-1.6,7.6l-8.4-6.4C51.3.4,50,0,48.7,0,45.3,0,43.1,2.4,43.1,5.4s2.3,5.5,5.6,5.5c1.4,0,2.5-.4,3.6-1.2l1.7-1.3c.4-.3.4-.8,0-1.1l-1.3-1c-.3-.2-.6-.2-.9,0l-1.8,1.4c-.4.3-.8.5-1.4.5-1.4,0-2.4-1.1-2.4-2.7,0-1.5,1.1-2.6,2.4-2.6.6,0,1,.1,1.5.5l8.4,6.5c1,.7,2.2,1.1,3.6,1.1,1.7,0,3.5-.8,4.4-1.9.1-.1.1-.3.1-.4v-3.1c0-.4-.3-.7-.7-.7h-2.7c-.4,0-.7.3-.7.7v.4c0,.4.3.7.7.7h.7v1c-.6.4-1.2.6-1.8.6s-.9-.4-1.4-.7Z"/>
    </g>
  </g>
</svg>